<svg enable-background="new 0 0 24 24" height="512" viewBox="0 0 24 24" width="512" xmlns="http://www.w3.org/2000/svg"><path fill="#FFB799" d="m23.201 11.938-10.925-11.151c-.506-.517-1.211-.812-1.935-.812-.001 0-.003 0-.005 0l-8.616.021c-.949.002-1.722.775-1.724 1.724l-.021 8.617c-.001.725.295 1.432.812 1.939l11.151 10.925c.524.514 1.209.77 1.894.77.694 0 1.388-.263 1.914-.789l7.436-7.436c1.045-1.045 1.053-2.753.019-3.808zm-18.201-4.938c-1.103 0-2-.897-2-2s.897-2 2-2 2 .897 2 2-.897 2-2 2zm7.62 5.25h.76c1.169 0 2.12.951 2.12 2.12 0 1.051-.758 1.916-1.75 2.092v.787c0 .414-.336.75-.75.75s-.75-.336-.75-.75v-.749h-1c-.414 0-.75-.336-.75-.75s.336-.75.75-.75h2.13c.342 0 .62-.278.62-.62 0-.352-.278-.63-.62-.63h-.76c-1.169 0-2.12-.951-2.12-2.12 0-1.051.758-1.916 1.75-2.092v-.788c0-.414.336-.75.75-.75s.75.336.75.75v.75h1c.414 0 .75.336.75.75s-.336.75-.75.75h-2.13c-.342 0-.62.278-.62.62 0 .352.278.63.62.63z"/></svg>